<svg width="18" height="19" viewBox="0 0 18 19" fill="none" xmlns="http://www.w3.org/2000/svg">
<path d="M12.0616 12.744C11.2745 12.6714 10.3338 12.6282 9.21454 12.6302V9.86814H12.814C12.7557 10.8666 12.4677 11.8414 12.0616 12.744ZM8.84588 0.85C4.07617 0.85 0.195703 4.72973 0.195703 9.49948C0.195703 14.2507 4.04641 18.1188 8.79098 18.1485C8.79655 18.1492 8.80278 18.1497 8.80955 18.1497C8.81407 18.1497 8.81826 18.1494 8.82204 18.1491L8.82516 18.1492L8.82582 18.1492C8.83067 18.1494 8.83809 18.1497 8.84588 18.1497C13.6156 18.1497 17.4957 14.2692 17.4957 9.49983C17.4961 4.73009 13.6156 0.85 8.84588 0.85ZM2.52589 4.74599C3.78858 3.07208 5.69865 1.91431 7.88097 1.6476C7.15351 2.40892 6.02215 3.73567 5.18449 5.37631C3.66502 5.18521 2.88868 4.91657 2.52589 4.74599ZM2.10707 5.35949C2.52069 5.57319 3.32916 5.86577 4.85411 6.0758C4.44694 7.02166 4.15868 8.05461 4.10376 9.13117H0.943468C1.00693 7.75333 1.42399 6.46654 2.10707 5.35949ZM0.943458 9.86814H4.10342C4.15778 10.9336 4.44087 11.9556 4.84116 12.8931C3.30648 13.1055 2.49961 13.4019 2.0917 13.6154C1.41787 12.5137 1.00638 11.2362 0.943458 9.86814ZM5.16776 13.592C6.00708 15.2474 7.14852 16.586 7.88065 17.3523C5.6876 17.084 3.76917 15.9156 2.5067 14.2277C2.85808 14.0588 3.62905 13.7857 5.16776 13.592ZM8.47757 13.375V16.9026C7.82838 16.2221 6.7786 15.0022 5.97055 13.5048C6.67307 13.4409 7.50288 13.3941 8.47757 13.375ZM8.47757 9.86849V12.6387C7.3515 12.6609 6.40794 12.7194 5.62082 12.8C5.20265 11.8825 4.90522 10.8899 4.84594 9.86849H8.47757ZM8.47757 9.13151H4.84594C4.9059 8.09906 5.20983 7.09544 5.63551 6.16952C6.41967 6.24917 7.35842 6.30701 8.47757 6.32913V9.13151ZM8.47757 5.59208C7.51148 5.57275 6.6876 5.52656 5.98884 5.46342C6.79449 3.98169 7.83331 2.77403 8.47757 2.09831V5.59208ZM15.6037 5.39039C16.2752 6.49068 16.6851 7.76593 16.7483 9.13151H13.552C13.4983 8.07942 13.2212 7.06936 12.8286 6.1415C14.3491 5.94128 15.1735 5.62751 15.6037 5.39039ZM12.5045 5.43989C11.6618 3.76573 10.5065 2.41264 9.76966 1.64251C11.9822 1.90097 13.9186 3.07578 15.1892 4.77727C14.8233 4.96571 14.0392 5.25847 12.5045 5.43989ZM9.21419 5.60094V2.13663C9.87422 2.83255 10.9063 4.04172 11.6997 5.51873C11.0008 5.57305 10.1778 5.60452 9.21419 5.60094ZM9.21419 9.13151V6.33791C9.26026 6.33824 9.30617 6.33848 9.35096 6.33848C10.4074 6.33848 11.2979 6.29598 12.0513 6.22724C12.4629 7.13682 12.7553 8.12115 12.814 9.13151H9.21419ZM9.21419 16.861V13.3658C9.25455 13.3655 9.29452 13.3653 9.33385 13.3653C10.2528 13.3653 11.0386 13.3982 11.7116 13.4514C10.9169 14.9387 9.87759 16.1591 9.21419 16.861ZM12.5183 13.5306C14.067 13.7154 14.8487 14.0129 15.206 14.1992C13.9361 15.9136 11.9925 17.0979 9.76956 17.3572C10.5105 16.5826 11.6745 15.2182 12.5183 13.5306ZM15.6179 13.5864C15.1934 13.3505 14.3714 13.0347 12.8395 12.8314C13.2263 11.911 13.4988 10.9105 13.552 9.86814H16.7483C16.6857 11.2241 16.2812 12.4912 15.6179 13.5864Z" fill="#010002" stroke="#272727" stroke-width="0.3"/>
</svg>
